<?xml version="1.0" ?><!DOCTYPE svg  PUBLIC '-//W3C//DTD SVG 1.1//EN'  'http://www.w3.org/Graphics/SVG/1.1/DTD/svg11.dtd'><svg height="720pt" version="1.1" viewBox="0 0 720 720" width="720pt" xmlns="http://www.w3.org/2000/svg"><path d=" M 275.06 196.96 C 275.25 191.41 280.46 186.74 285.98 187.01 C 308.67 186.99 331.35 186.99 354.04 187.01 C 359.53 186.75 364.72 191.38 364.93 196.90 C 365.11 204.60 364.94 212.30 365.00 220.00 C 365.00 220.82 365.00 222.46 365.00 223.27 C 365.01 243.51 364.98 263.74 365.01 283.98 C 365.01 286.66 364.87 289.33 364.64 292.00 C 334.88 292.00 305.13 292.00 275.37 292.00 C 275.00 288.02 274.95 284.02 274.99 280.03 C 274.99 279.27 274.99 277.74 275.00 276.98 C 275.01 271.00 275.00 265.01 275.00 259.03 C 275.00 258.27 275.00 256.76 275.00 256.00 C 275.00 245.07 275.00 234.13 275.00 223.19 C 275.00 222.40 275.00 220.80 275.00 220.00 C 275.05 212.32 274.90 204.64 275.06 196.96 Z" fill="#e5e3c6" opacity="1.00"/><path d=" M 372.07 196.86 C 372.30 191.37 377.47 186.76 382.94 187.01 C 405.66 186.99 428.38 186.99 451.10 187.01 C 456.59 186.78 461.75 191.43 461.94 196.95 C 462.10 204.63 461.94 212.32 462.00 220.00 C 462.00 220.81 462.00 222.43 462.00 223.24 C 462.00 234.14 462.00 245.04 462.00 255.94 C 462.00 256.71 462.00 258.24 462.00 259.00 C 462.00 265.00 461.99 270.99 462.00 276.99 C 462.01 277.75 462.01 279.26 462.01 280.02 C 462.05 284.01 462.01 288.02 461.64 292.00 C 459.11 292.01 456.57 292.01 454.04 292.02 C 454.70 291.04 455.35 290.05 455.90 289.01 C 456.27 287.15 454.89 285.63 454.20 284.05 C 451.67 284.02 449.15 284.01 446.63 284.17 C 446.20 283.65 445.34 282.60 444.91 282.07 C 438.97 281.96 433.02 281.95 427.09 282.08 C 426.65 282.61 425.79 283.67 425.36 284.20 C 416.91 283.77 408.44 284.10 399.99 283.97 C 396.15 283.55 393.16 286.33 390.21 288.32 C 392.19 289.66 394.28 290.84 396.41 291.94 C 388.39 292.01 380.38 292.01 372.37 292.00 C 371.82 286.36 372.02 280.68 372.00 275.02 C 372.00 257.76 372.00 240.50 372.00 223.24 C 372.00 222.43 372.00 220.81 372.00 220.00 C 372.06 212.29 371.89 204.57 372.07 196.86 Z" fill="#e5e3c6" opacity="1.00"/><path d=" M 49.58 220.11 C 124.72 219.85 199.86 220.07 275.00 220.00 C 275.00 220.80 275.00 222.40 275.00 223.19 C 202.31 223.52 129.62 223.22 56.93 223.34 C 49.22 223.62 41.93 227.22 35.97 231.93 C 27.20 239.64 22.02 251.27 22.17 262.96 C 22.19 283.94 22.18 304.91 22.16 325.88 C 34.37 326.56 46.67 325.10 58.81 326.78 C 59.04 333.53 59.12 340.28 59.37 347.04 C 59.45 349.43 59.44 351.83 59.42 354.24 C 59.19 358.52 60.49 362.94 63.53 366.06 C 65.64 368.22 67.95 370.58 71.08 371.09 C 75.02 371.64 79.01 371.30 82.98 371.35 C 267.32 371.34 451.67 371.36 636.01 371.34 C 640.68 371.28 645.37 371.60 650.04 371.21 C 653.52 371.00 656.12 368.42 658.41 366.06 C 661.42 362.93 662.75 358.53 662.52 354.24 C 662.50 351.82 662.47 349.41 662.40 347.00 C 662.14 341.02 662.17 335.04 662.09 329.07 C 663.08 328.06 664.08 327.06 665.08 326.06 C 676.99 325.94 688.89 326.15 700.79 325.95 C 700.86 304.98 700.79 284.01 700.84 263.04 C 700.95 251.59 696.02 240.21 687.62 232.43 C 681.54 227.41 674.00 223.54 665.98 223.33 C 597.99 223.29 529.99 223.42 462.00 223.24 C 462.00 222.43 462.00 220.81 462.00 220.00 C 529.99 219.99 597.98 220.02 665.97 219.99 C 668.88 220.13 671.97 219.46 674.69 220.78 C 677.18 221.85 679.68 222.89 682.25 223.76 C 683.38 224.56 684.56 225.32 685.73 226.08 C 686.12 226.38 686.90 226.98 687.29 227.28 C 690.25 229.18 692.63 231.79 695.03 234.33 C 699.15 240.61 702.81 247.48 703.97 254.97 C 704.05 278.66 703.98 302.35 704.00 326.04 C 704.59 326.26 705.78 326.70 706.38 326.93 C 707.33 331.24 706.96 335.67 707.00 340.04 C 707.01 363.04 706.98 386.04 707.02 409.04 C 707.19 413.38 704.91 417.23 702.72 420.79 C 696.43 432.82 682.41 439.81 669.02 439.02 C 659.73 438.98 650.45 439.01 641.17 439.00 C 641.16 449.41 632.57 459.13 622.12 459.94 C 615.06 460.12 607.99 459.93 600.93 460.00 C 601.09 508.35 600.96 556.70 601.00 605.06 C 601.45 615.38 593.40 625.22 583.15 626.68 C 577.00 627.36 570.31 627.44 564.80 624.20 C 558.03 620.42 553.74 612.77 554.00 605.02 C 554.04 556.68 553.91 508.34 554.07 460.00 C 547.36 459.93 540.65 460.12 533.95 459.94 C 523.47 459.17 514.84 449.44 514.83 439.00 C 412.61 439.00 310.38 439.00 208.16 439.00 C 207.79 448.96 200.18 458.29 190.15 459.68 C 183.10 460.39 176.00 459.82 168.93 460.00 C 169.09 508.34 168.96 556.67 169.00 605.01 C 169.28 612.99 164.71 620.86 157.61 624.52 C 152.54 627.32 146.53 627.28 140.92 626.82 C 132.03 625.99 124.24 618.86 122.49 610.13 C 121.85 606.79 121.99 603.38 121.99 600.01 C 122.07 553.34 121.89 506.67 122.07 460.00 C 114.67 459.82 107.24 460.38 99.87 459.69 C 89.83 458.29 82.21 448.97 81.85 439.00 C 71.56 438.99 61.28 439.00 50.99 439.01 C 40.12 438.95 29.61 433.48 22.85 425.07 C 20.04 419.99 15.81 415.11 15.98 408.96 C 16.02 383.31 16.00 357.66 15.99 332.01 C 16.01 330.27 16.32 328.58 16.66 326.90 C 17.25 326.68 18.42 326.25 19.01 326.03 C 18.99 302.68 19.02 279.33 18.98 255.98 C 18.94 252.65 20.49 249.61 21.34 246.46 C 23.20 242.22 25.43 238.15 27.99 234.30 C 30.38 231.78 32.75 229.18 35.69 227.29 C 36.09 226.99 36.91 226.38 37.32 226.08 C 38.46 225.33 39.59 224.55 40.71 223.77 C 43.76 222.79 46.72 221.55 49.58 220.11 M 19.11 329.06 C 18.67 355.06 19.20 381.06 18.94 407.06 C 18.64 411.65 20.34 416.25 23.28 419.74 C 27.83 420.51 32.47 419.92 37.06 420.04 C 257.36 420.01 477.68 419.99 697.97 420.06 C 698.39 419.99 699.24 419.85 699.67 419.78 C 702.35 416.48 704.23 412.29 704.09 407.97 C 703.86 381.66 704.23 355.35 703.92 329.05 C 691.02 328.97 678.12 328.79 665.23 329.16 C 664.93 339.21 665.14 349.27 665.23 359.31 C 663.93 364.99 659.93 370.01 654.89 372.89 C 649.91 375.05 644.31 373.80 639.05 374.09 C 450.37 374.10 261.68 374.09 72.99 374.11 C 70.02 374.10 66.93 373.39 64.66 371.37 C 60.15 367.49 56.11 362.19 56.17 355.96 C 56.05 346.98 56.39 337.99 55.98 329.02 C 43.69 329.01 31.40 328.90 19.11 329.06 M 84.83 439.06 C 85.24 448.51 93.31 457.12 102.98 457.01 C 130.97 457.04 158.97 457.08 186.96 456.99 C 196.62 457.11 204.70 448.58 205.21 439.14 C 197.16 438.88 189.10 439.03 181.04 438.95 C 148.97 439.09 116.90 438.79 84.83 439.06 M 517.88 439.12 C 518.21 448.57 526.38 457.08 535.98 456.99 C 563.95 456.99 591.94 456.99 619.92 456.99 C 629.50 457.11 637.91 448.61 638.09 439.10 C 622.72 438.77 607.35 439.10 591.98 438.97 C 567.28 439.05 542.58 438.79 517.88 439.12 M 125.15 460.04 C 124.70 508.01 125.17 556.00 124.93 603.98 C 124.58 610.48 127.52 617.34 133.10 620.90 C 137.12 623.76 142.19 624.30 146.99 624.09 C 153.91 624.21 161.01 620.34 163.98 613.96 C 166.62 609.08 166.01 603.36 166.06 598.02 C 165.90 552.05 166.17 506.06 165.92 460.09 C 152.33 459.77 138.74 460.02 125.15 460.04 M 557.13 460.14 C 556.78 508.42 557.07 556.72 556.99 605.00 C 556.76 611.67 560.36 618.46 566.31 621.62 C 571.31 624.54 577.39 624.38 582.96 623.71 C 591.69 622.29 598.50 613.89 598.04 605.04 C 597.98 556.73 598.12 508.42 597.90 460.11 C 584.31 459.95 570.72 459.87 557.13 460.14 Z" fill="#2c1b10" opacity="1.00"/><path d=" M 365.00 220.00 C 367.33 220.00 369.66 220.00 372.00 220.00 C 372.00 220.81 372.00 222.43 372.00 223.24 C 369.66 223.25 367.33 223.26 365.00 223.27 C 365.00 222.46 365.00 220.82 365.00 220.00 Z" fill="#2d1c10" opacity="1.00"/><path d=" M 35.97 231.93 C 41.93 227.22 49.22 223.62 56.93 223.34 C 129.62 223.22 202.31 223.52 275.00 223.19 C 275.00 234.13 275.00 245.07 275.00 256.00 C 208.31 256.01 141.62 255.98 74.94 256.02 C 70.75 255.86 66.94 258.24 64.57 261.58 C 60.75 266.53 59.06 272.82 59.01 279.01 C 58.80 294.93 59.27 310.86 58.81 326.78 C 46.67 325.10 34.37 326.56 22.16 325.88 C 22.18 304.91 22.19 283.94 22.17 262.96 C 22.02 251.27 27.20 239.64 35.97 231.93 Z" fill="#4c2a13" opacity="1.00"/><path d=" M 365.00 223.27 C 367.33 223.26 369.66 223.25 372.00 223.24 C 372.00 240.50 372.00 257.76 372.00 275.02 C 372.02 280.68 371.82 286.36 372.37 292.00 C 369.79 292.00 367.21 292.00 364.64 292.00 C 364.87 289.33 365.01 286.66 365.01 283.98 C 364.98 263.74 365.01 243.51 365.00 223.27 Z" fill="#4c2a13" opacity="1.00"/><path d=" M 462.00 223.24 C 529.99 223.42 597.99 223.29 665.98 223.33 C 674.00 223.54 681.54 227.41 687.62 232.43 C 696.02 240.21 700.95 251.59 700.84 263.04 C 700.79 284.01 700.86 304.98 700.79 325.95 C 688.89 326.15 676.99 325.94 665.08 326.06 C 664.87 311.05 665.05 296.04 665.04 281.04 C 665.16 273.08 663.08 264.48 657.04 258.92 C 652.38 254.75 645.70 256.15 640.00 255.99 C 580.67 255.98 521.33 256.08 462.00 255.94 C 462.00 245.04 462.00 234.14 462.00 223.24 Z" fill="#4c2a13" opacity="1.00"/><path d=" M 64.57 261.58 C 66.94 258.24 70.75 255.86 74.94 256.02 C 141.62 255.98 208.31 256.01 275.00 256.00 C 275.00 256.76 275.00 258.27 275.00 259.03 C 208.67 258.95 142.33 259.05 76.00 258.99 C 70.68 258.63 66.46 262.93 64.40 267.42 C 61.32 274.19 61.99 281.80 61.99 289.03 C 62.02 308.36 61.98 327.68 61.99 347.01 C 61.34 347.02 60.03 347.03 59.37 347.04 C 59.12 340.28 59.04 333.53 58.81 326.78 C 59.27 310.86 58.80 294.93 59.01 279.01 C 59.06 272.82 60.75 266.53 64.57 261.58 Z" fill="#3d2311" opacity="1.00"/><path d=" M 462.00 255.94 C 521.33 256.08 580.67 255.98 640.00 255.99 C 645.70 256.15 652.38 254.75 657.04 258.92 C 663.08 264.48 665.16 273.08 665.04 281.04 C 665.05 296.04 664.87 311.05 665.08 326.06 C 664.08 327.06 663.08 328.06 662.09 329.07 C 661.87 312.70 662.02 296.32 662.02 279.95 C 661.84 273.20 660.43 265.59 654.79 261.20 C 650.96 257.97 645.58 259.16 640.99 258.97 C 581.32 259.02 521.66 258.98 462.00 259.00 C 462.00 258.24 462.00 256.71 462.00 255.94 Z" fill="#3d2311" opacity="1.00"/><path d=" M 64.40 267.42 C 66.46 262.93 70.68 258.63 76.00 258.99 C 142.33 259.05 208.67 258.95 275.00 259.03 C 275.00 265.01 275.01 271.00 275.00 276.98 C 215.67 277.06 156.33 276.95 97.00 277.00 C 93.35 277.00 89.64 278.43 87.29 281.30 C 83.25 286.21 81.81 292.76 81.92 299.00 C 82.03 315.00 82.05 331.00 81.97 347.00 C 81.27 347.00 79.85 347.00 79.14 347.00 C 78.61 347.00 77.55 347.00 77.02 347.00 C 72.01 347.00 67.00 346.98 61.99 347.01 C 61.98 327.68 62.02 308.36 61.99 289.03 C 61.99 281.80 61.32 274.19 64.40 267.42 Z" fill="#4c2a13" opacity="1.00"/><path d=" M 462.00 259.00 C 521.66 258.98 581.32 259.02 640.99 258.97 C 645.58 259.16 650.96 257.97 654.79 261.20 C 660.43 265.59 661.84 273.20 662.02 279.95 C 662.02 296.32 661.87 312.70 662.09 329.07 C 662.17 335.04 662.14 341.02 662.40 347.00 C 660.92 346.99 659.45 346.98 657.98 346.98 C 657.68 344.99 657.65 342.92 656.99 341.01 C 655.45 337.90 651.39 337.80 648.49 338.67 C 645.59 340.33 645.70 344.10 645.26 346.99 C 643.17 346.99 641.08 346.99 639.01 347.00 C 639.02 330.67 639.00 314.35 639.02 298.02 C 639.09 292.08 637.51 285.93 633.72 281.26 C 631.14 278.08 626.93 276.91 622.97 276.96 C 569.32 277.02 515.66 277.00 462.00 276.99 C 461.99 270.99 462.00 265.00 462.00 259.00 Z" fill="#4c2a13" opacity="1.00"/><path d=" M 87.29 281.30 C 89.64 278.43 93.35 277.00 97.00 277.00 C 156.33 276.95 215.67 277.06 275.00 276.98 C 274.99 277.74 274.99 279.27 274.99 280.03 C 216.65 279.95 158.32 280.07 99.98 279.96 C 96.96 280.08 93.51 279.88 91.09 282.04 C 86.76 286.10 84.74 292.18 84.93 298.05 C 85.09 314.36 84.91 330.68 85.05 347.00 C 84.28 347.00 82.74 347.00 81.97 347.00 C 82.05 331.00 82.03 315.00 81.92 299.00 C 81.81 292.76 83.25 286.21 87.29 281.30 Z" fill="#3d2311" opacity="1.00"/><path d=" M 462.00 276.99 C 515.66 277.00 569.32 277.02 622.97 276.96 C 626.93 276.91 631.14 278.08 633.72 281.26 C 637.51 285.93 639.09 292.08 639.02 298.02 C 639.00 314.35 639.02 330.67 639.01 347.00 C 638.25 347.00 636.74 347.01 635.98 347.01 C 636.09 330.66 635.90 314.30 636.04 297.94 C 636.17 292.36 634.35 286.61 630.46 282.53 C 627.18 279.33 622.20 280.06 618.02 279.94 C 566.02 280.09 514.02 279.94 462.01 280.02 C 462.01 279.26 462.01 277.75 462.00 276.99 Z" fill="#3d2311" opacity="1.00"/><path d=" M 91.09 282.04 C 93.51 279.88 96.96 280.08 99.98 279.96 C 158.32 280.07 216.65 279.95 274.99 280.03 C 274.95 284.02 275.00 288.02 275.37 292.00 C 268.52 292.17 261.65 291.63 254.82 292.21 C 250.83 292.75 249.77 297.71 250.06 301.06 C 250.08 304.77 252.82 308.65 256.92 307.99 C 326.26 308.03 395.61 307.97 464.95 308.02 C 468.84 307.92 472.84 308.46 476.64 307.42 C 481.23 304.17 481.23 295.72 476.56 292.55 C 471.69 291.41 466.60 292.18 461.64 292.00 C 462.01 288.02 462.05 284.01 462.01 280.02 C 514.02 279.94 566.02 280.09 618.02 279.94 C 622.20 280.06 627.18 279.33 630.46 282.53 C 634.35 286.61 636.17 292.36 636.04 297.94 C 635.90 314.30 636.09 330.66 635.98 347.01 C 635.47 347.02 634.43 347.03 633.92 347.04 L 632.64 347.06 C 632.60 353.36 632.60 359.66 632.63 365.96 L 632.36 365.96 C 632.37 359.65 632.33 353.34 632.41 347.03 L 631.25 347.02 C 627.02 346.99 622.80 346.99 618.58 346.98 C 618.26 345.09 618.07 343.18 617.49 341.36 C 615.85 337.90 610.48 337.09 607.87 339.88 C 605.78 341.62 605.85 344.53 605.37 346.98 C 603.26 346.98 601.16 346.98 599.06 346.98 C 598.66 344.80 598.83 342.37 597.62 340.43 C 595.87 337.77 592.16 337.93 589.46 338.70 C 586.50 340.32 586.73 344.11 586.34 347.00 C 582.07 346.99 577.81 347.00 573.55 347.00 C 573.01 347.00 571.93 347.00 571.39 347.00 C 567.23 347.00 563.08 347.00 558.92 346.98 C 558.48 344.35 559.10 341.05 556.79 339.15 C 553.93 336.37 548.46 337.28 546.93 341.04 C 546.45 342.99 546.51 345.01 546.42 347.00 C 543.74 347.00 541.07 346.98 538.40 346.98 C 538.23 344.76 538.53 342.42 537.71 340.31 C 535.74 335.90 528.38 336.15 526.59 340.58 C 526.04 342.66 526.41 344.86 526.46 346.99 C 524.26 346.99 522.07 346.98 519.88 346.98 C 519.44 344.38 520.09 341.09 517.76 339.25 C 515.45 337.01 511.52 336.99 509.20 339.21 C 506.88 341.08 507.53 344.37 507.10 346.97 C 503.24 346.99 499.39 346.99 495.55 347.05 C 494.91 347.05 493.65 347.06 493.02 347.06 C 489.21 347.00 485.41 346.99 481.61 346.97 C 481.27 345.09 481.04 343.17 480.45 341.35 C 478.84 337.85 473.49 337.11 470.87 339.88 C 468.82 341.64 468.87 344.55 468.32 346.99 C 466.23 346.98 464.15 346.99 462.07 346.98 C 461.59 344.20 461.87 340.63 459.10 338.96 C 457.07 337.90 454.54 338.09 452.42 338.72 C 449.41 340.27 449.77 344.14 449.35 346.99 C 444.61 347.00 439.88 347.00 435.14 347.00 C 434.61 347.00 433.54 347.00 433.01 347.00 C 429.30 347.00 425.60 347.00 421.90 346.98 C 421.68 344.91 421.70 342.79 421.09 340.79 C 419.37 337.28 414.06 336.40 411.30 339.17 C 409.02 341.10 409.67 344.36 409.39 347.00 C 406.72 347.00 404.05 346.98 401.38 346.97 C 401.16 344.55 401.72 341.82 400.32 339.68 C 397.96 335.89 391.23 336.39 389.59 340.62 C 389.03 342.69 389.44 344.87 389.49 346.99 C 387.29 346.99 385.08 346.98 382.89 346.97 C 382.44 344.37 383.04 341.09 380.74 339.23 C 378.45 337.02 374.52 336.97 372.23 339.20 C 369.87 341.06 370.55 344.38 370.11 347.00 C 365.40 346.98 360.69 346.99 355.98 347.06 C 355.34 347.05 354.06 347.05 353.42 347.05 C 349.79 347.00 346.17 346.99 342.54 346.97 C 341.82 344.18 341.86 340.59 339.12 338.87 C 337.05 337.94 334.57 338.07 332.44 338.72 C 329.54 340.36 329.84 344.14 329.36 346.98 C 327.22 346.99 325.09 346.99 322.96 346.98 C 322.67 344.98 322.67 342.89 321.97 340.97 C 320.37 337.94 316.37 337.80 313.46 338.65 C 310.68 340.46 310.64 344.05 310.26 346.99 C 306.50 347.00 302.74 347.00 298.98 347.00 C 298.47 347.00 297.44 347.00 296.93 347.00 C 292.14 347.00 287.35 346.98 282.56 347.00 C 282.27 344.41 282.96 341.22 280.79 339.27 C 278.52 336.97 274.51 336.96 272.18 339.17 C 269.85 341.04 270.50 344.36 270.07 346.98 C 267.22 346.99 264.37 347.00 261.53 347.03 C 261.81 344.84 262.85 342.42 261.59 340.36 C 259.74 336.27 253.09 335.98 250.83 339.80 C 249.30 341.94 250.31 344.61 250.49 346.99 C 248.17 346.99 245.86 346.99 243.55 347.00 C 243.27 344.57 243.84 341.74 242.15 339.73 C 240.02 337.08 235.69 336.84 233.20 339.13 C 230.64 340.93 231.54 344.33 231.40 347.00 C 227.45 346.99 223.50 347.00 219.55 347.00 C 219.01 347.00 217.93 347.00 217.39 347.00 C 212.61 347.00 207.83 347.01 203.06 346.99 C 202.58 344.20 202.86 340.59 200.06 338.93 C 197.87 338.06 195.40 338.44 193.09 338.26 C 191.47 340.91 190.51 343.88 190.27 346.98 C 188.09 346.99 185.91 346.99 183.73 346.99 C 183.29 344.07 183.31 340.49 180.58 338.66 C 177.66 337.84 173.60 337.86 172.02 340.96 C 171.31 342.88 171.28 344.97 170.99 346.98 C 167.30 347.00 163.61 346.99 159.92 347.04 L 158.65 347.05 C 158.61 353.36 158.61 359.66 158.64 365.96 L 158.38 365.96 C 158.38 359.65 158.34 353.34 158.41 347.02 L 157.23 347.02 C 152.65 346.99 148.07 346.99 143.49 347.00 C 143.34 344.40 143.83 341.27 141.70 339.32 C 139.31 336.78 134.87 337.00 132.63 339.63 C 130.66 341.56 131.50 344.53 131.37 346.99 C 128.43 346.99 125.49 346.99 122.55 347.01 C 122.69 344.64 123.64 341.97 122.17 339.83 C 119.92 335.98 113.19 336.24 111.36 340.36 C 110.25 342.44 111.22 344.81 111.40 347.00 C 109.10 347.00 106.81 346.98 104.51 346.98 C 104.34 344.59 104.81 341.83 103.15 339.85 C 101.02 337.13 96.64 336.81 94.08 339.10 C 91.70 340.96 92.44 344.35 92.01 346.98 C 89.68 346.99 87.36 347.00 85.05 347.00 C 84.91 330.68 85.09 314.36 84.93 298.05 C 84.74 292.18 86.76 286.10 91.09 282.04 Z" fill="#4c2a13" opacity="1.00"/><path d=" M 427.09 282.08 C 433.02 281.95 438.97 281.96 444.91 282.07 C 445.34 282.60 446.20 283.65 446.63 284.17 C 442.89 286.70 438.23 285.99 433.98 286.09 C 430.99 286.13 427.89 285.95 425.36 284.20 C 425.79 283.67 426.65 282.61 427.09 282.08 Z" fill="#312b2d" opacity="1.00"/><path d=" M 390.21 288.32 C 393.16 286.33 396.15 283.55 399.99 283.97 C 408.44 284.10 416.91 283.77 425.36 284.20 C 427.89 285.95 430.99 286.13 433.98 286.09 C 438.23 285.99 442.89 286.70 446.63 284.17 C 449.15 284.01 451.67 284.02 454.20 284.05 C 454.89 285.63 456.27 287.15 455.90 289.01 C 455.35 290.05 454.70 291.04 454.04 292.02 C 434.83 291.93 415.62 292.09 396.41 291.94 C 394.28 290.84 392.19 289.66 390.21 288.32 Z" fill="#231f20" opacity="1.00"/><path d=" M 250.06 301.06 C 249.77 297.71 250.83 292.75 254.82 292.21 C 261.65 291.63 268.52 292.17 275.37 292.00 C 305.13 292.00 334.88 292.00 364.64 292.00 C 367.21 292.00 369.79 292.00 372.37 292.00 C 380.38 292.01 388.39 292.01 396.41 291.94 C 415.62 292.09 434.83 291.93 454.04 292.02 C 456.57 292.01 459.11 292.01 461.64 292.00 C 466.60 292.18 471.69 291.41 476.56 292.55 C 481.23 295.72 481.23 304.17 476.64 307.42 C 472.84 308.46 468.84 307.92 464.95 308.02 C 395.61 307.97 326.26 308.03 256.92 307.99 C 252.82 308.65 250.08 304.77 250.06 301.06 M 254.30 294.29 C 251.14 297.03 251.23 302.77 254.16 305.69 C 259.40 306.44 264.71 305.88 269.98 306.01 C 337.33 306.05 404.68 305.97 472.03 306.04 C 473.29 306.03 474.55 305.92 475.80 305.71 C 478.59 303.12 478.61 298.39 476.73 295.26 C 475.76 293.65 473.58 294.20 472.02 293.97 C 403.33 294.00 334.63 293.98 265.93 293.98 C 262.05 294.05 258.14 293.64 254.30 294.29 Z" fill="#d68801" opacity="1.00"/><path d=" M 254.30 294.29 C 258.14 293.64 262.05 294.05 265.93 293.98 C 334.63 293.98 403.33 294.00 472.02 293.97 C 473.58 294.20 475.76 293.65 476.73 295.26 C 478.61 298.39 478.59 303.12 475.80 305.71 C 474.55 305.92 473.29 306.03 472.03 306.04 C 404.68 305.97 337.33 306.05 269.98 306.01 C 264.71 305.88 259.40 306.44 254.16 305.69 C 251.23 302.77 251.14 297.03 254.30 294.29 Z" fill="#f5d210" opacity="1.00"/><path d=" M 19.11 329.06 C 31.40 328.90 43.69 329.01 55.98 329.02 C 56.39 337.99 56.05 346.98 56.17 355.96 C 56.11 362.19 60.15 367.49 64.66 371.37 C 66.93 373.39 70.02 374.10 72.99 374.11 C 261.68 374.09 450.37 374.10 639.05 374.09 C 644.31 373.80 649.91 375.05 654.89 372.89 C 659.93 370.01 663.93 364.99 665.23 359.31 C 665.14 349.27 664.93 339.21 665.23 329.16 C 678.12 328.79 691.02 328.97 703.92 329.05 C 704.23 355.35 703.86 381.66 704.09 407.97 C 704.23 412.29 702.35 416.48 699.67 419.78 C 699.24 419.85 698.39 419.99 697.97 420.06 C 477.68 419.99 257.36 420.01 37.06 420.04 C 32.47 419.92 27.83 420.51 23.28 419.74 C 20.34 416.25 18.64 411.65 18.94 407.06 C 19.20 381.06 18.67 355.06 19.11 329.06 Z" fill="#3d2311" opacity="1.00"/><path d=" M 111.36 340.36 C 113.19 336.24 119.92 335.98 122.17 339.83 C 123.64 341.97 122.69 344.64 122.55 347.01 C 121.65 347.02 119.87 347.04 118.98 347.05 C 118.34 347.05 117.06 347.05 116.43 347.05 C 114.75 347.02 113.07 347.01 111.40 347.00 C 111.22 344.81 110.25 342.44 111.36 340.36 Z" fill="#000000" opacity="1.00"/><path d=" M 250.83 339.80 C 253.09 335.98 259.74 336.27 261.59 340.36 C 262.85 342.42 261.81 344.84 261.53 347.03 L 259.64 347.05 C 258.98 347.05 257.67 347.05 257.02 347.05 C 254.84 347.01 252.66 346.99 250.49 346.99 C 250.31 344.61 249.30 341.94 250.83 339.80 Z" fill="#000000" opacity="1.00"/><path d=" M 389.59 340.62 C 391.23 336.39 397.96 335.89 400.32 339.68 C 401.72 341.82 401.16 344.55 401.38 346.97 C 399.90 346.97 398.41 346.99 396.93 347.03 L 395.63 347.05 C 395.61 353.35 395.57 359.65 395.60 365.96 L 395.39 365.96 C 395.38 359.65 395.39 353.34 395.45 347.03 L 394.27 347.02 C 392.67 347.00 391.08 346.99 389.49 346.99 C 389.44 344.87 389.03 342.69 389.59 340.62 Z" fill="#000000" opacity="1.00"/><path d=" M 526.59 340.58 C 528.38 336.15 535.74 335.90 537.71 340.31 C 538.53 342.42 538.23 344.76 538.40 346.98 C 537.55 346.98 535.84 346.98 534.98 346.99 C 534.47 346.99 533.43 346.99 532.91 347.00 C 530.76 347.00 528.61 346.99 526.46 346.99 C 526.41 344.86 526.04 342.66 526.59 340.58 Z" fill="#000000" opacity="1.00"/><path d=" M 94.08 339.10 C 96.64 336.81 101.02 337.13 103.15 339.85 C 104.81 341.83 104.34 344.59 104.51 346.98 C 102.86 346.98 101.21 346.99 99.55 347.00 C 99.01 347.00 97.93 347.00 97.39 347.00 C 95.59 346.99 93.80 346.98 92.01 346.98 C 92.44 344.35 91.70 340.96 94.08 339.10 Z" fill="#000000" opacity="1.00"/><path d=" M 132.63 339.63 C 134.87 337.00 139.31 336.78 141.70 339.32 C 143.83 341.27 143.34 344.40 143.49 347.00 C 142.52 347.01 140.57 347.03 139.59 347.05 C 138.95 347.05 137.66 347.05 137.02 347.05 C 135.13 347.02 133.25 347.00 131.37 346.99 C 131.50 344.53 130.66 341.56 132.63 339.63 Z" fill="#000000" opacity="1.00"/><path d=" M 172.02 340.96 C 173.60 337.86 177.66 337.84 180.58 338.66 C 183.31 340.49 183.29 344.07 183.73 346.99 C 182.15 346.99 180.57 346.99 178.99 347.00 C 178.47 347.00 177.44 347.00 176.92 347.00 C 174.94 347.00 172.97 346.98 170.99 346.98 C 171.28 344.97 171.31 342.88 172.02 340.96 Z" fill="#000000" opacity="1.00"/><path d=" M 193.09 338.26 C 195.40 338.44 197.87 338.06 200.06 338.93 C 202.86 340.59 202.58 344.20 203.06 346.99 C 201.75 346.98 200.45 346.98 199.15 346.99 C 198.62 347.00 197.55 347.00 197.01 347.00 C 194.76 347.00 192.52 346.98 190.27 346.98 C 190.51 343.88 191.47 340.91 193.09 338.26 Z" fill="#000000" opacity="1.00"/><path d=" M 233.20 339.13 C 235.69 336.84 240.02 337.08 242.15 339.73 C 243.84 341.74 243.27 344.57 243.55 347.00 C 242.03 347.00 240.51 347.02 238.99 347.05 C 238.35 347.05 237.07 347.05 236.43 347.05 C 234.75 347.02 233.07 347.00 231.40 347.00 C 231.54 344.33 230.64 340.93 233.20 339.13 Z" fill="#000000" opacity="1.00"/><path d=" M 272.18 339.17 C 274.51 336.96 278.52 336.97 280.79 339.27 C 282.96 341.22 282.27 344.41 282.56 347.00 C 281.89 347.01 280.55 347.03 279.88 347.03 L 278.63 347.05 C 278.62 353.35 278.58 359.65 278.60 365.96 L 278.38 365.96 C 278.41 359.65 278.39 353.34 278.45 347.03 L 277.23 347.02 C 274.84 347.00 272.45 346.98 270.07 346.98 C 270.50 344.36 269.85 341.04 272.18 339.17 Z" fill="#000000" opacity="1.00"/><path d=" M 313.46 338.65 C 316.37 337.80 320.37 337.94 321.97 340.97 C 322.67 342.89 322.67 344.98 322.96 346.98 C 320.68 346.98 318.41 347.00 316.14 347.00 C 315.61 347.00 314.55 347.00 314.02 347.00 C 313.08 347.00 311.20 346.99 310.26 346.99 C 310.64 344.05 310.68 340.46 313.46 338.65 Z" fill="#000000" opacity="1.00"/><path d=" M 332.44 338.72 C 334.57 338.07 337.05 337.94 339.12 338.87 C 341.86 340.59 341.82 344.18 342.54 346.97 C 340.54 346.97 338.55 346.99 336.56 347.00 C 336.01 347.00 334.93 347.00 334.39 347.00 C 332.71 346.99 331.03 346.98 329.36 346.98 C 329.84 344.14 329.54 340.36 332.44 338.72 Z" fill="#000000" opacity="1.00"/><path d=" M 372.23 339.20 C 374.52 336.97 378.45 337.02 380.74 339.23 C 383.04 341.09 382.44 344.37 382.89 346.97 C 380.78 346.97 378.68 347.01 376.58 347.05 C 375.94 347.05 374.66 347.05 374.02 347.05 C 372.71 347.02 371.41 347.00 370.11 347.00 C 370.55 344.38 369.87 341.06 372.23 339.20 Z" fill="#000000" opacity="1.00"/><path d=" M 411.30 339.17 C 414.06 336.40 419.37 337.28 421.09 340.79 C 421.70 342.79 421.68 344.91 421.90 346.98 C 419.93 346.98 417.95 346.99 415.99 347.00 C 415.47 347.00 414.43 347.00 413.91 347.00 C 412.40 347.00 410.89 347.00 409.39 347.00 C 409.67 344.36 409.02 341.10 411.30 339.17 Z" fill="#000000" opacity="1.00"/><path d=" M 452.42 338.72 C 454.54 338.09 457.07 337.90 459.10 338.96 C 461.87 340.63 461.59 344.20 462.07 346.98 C 459.89 346.98 457.72 346.99 455.56 347.00 C 455.01 347.00 453.93 347.00 453.39 347.00 C 452.38 346.99 450.36 346.99 449.35 346.99 C 449.77 344.14 449.41 340.27 452.42 338.72 Z" fill="#000000" opacity="1.00"/><path d=" M 470.87 339.88 C 473.49 337.11 478.84 337.85 480.45 341.35 C 481.04 343.17 481.27 345.09 481.61 346.97 C 479.39 346.97 477.19 347.01 474.98 347.05 C 474.34 347.05 473.06 347.05 472.43 347.04 C 471.40 347.03 469.35 347.00 468.32 346.99 C 468.87 344.55 468.82 341.64 470.87 339.88 Z" fill="#000000" opacity="1.00"/><path d=" M 509.20 339.21 C 511.52 336.99 515.45 337.01 517.76 339.25 C 520.09 341.09 519.44 344.38 519.88 346.98 C 518.55 346.98 517.23 346.99 515.92 347.02 L 514.60 347.05 C 514.60 353.35 514.59 359.65 514.59 365.96 L 514.38 365.96 C 514.41 359.65 514.38 353.34 514.42 347.03 L 513.22 347.02 C 511.17 346.99 509.13 346.97 507.10 346.97 C 507.53 344.37 506.88 341.08 509.20 339.21 Z" fill="#000000" opacity="1.00"/><path d=" M 546.93 341.04 C 548.46 337.28 553.93 336.37 556.79 339.15 C 559.10 341.05 558.48 344.35 558.92 346.98 C 556.99 346.98 555.06 346.99 553.14 347.00 C 552.61 347.00 551.55 347.00 551.02 347.00 C 549.48 347.00 547.94 347.00 546.42 347.00 C 546.51 345.01 546.45 342.99 546.93 341.04 Z" fill="#000000" opacity="1.00"/><path d=" M 589.46 338.70 C 592.16 337.93 595.87 337.77 597.62 340.43 C 598.83 342.37 598.66 344.80 599.06 346.98 C 597.03 346.99 595.00 347.01 592.98 347.05 C 592.35 347.05 591.09 347.05 590.46 347.05 C 589.43 347.04 587.37 347.01 586.34 347.00 C 586.73 344.11 586.50 340.32 589.46 338.70 Z" fill="#000000" opacity="1.00"/><path d=" M 607.87 339.88 C 610.48 337.09 615.85 337.90 617.49 341.36 C 618.07 343.18 618.26 345.09 618.58 346.98 C 616.91 346.99 615.25 347.01 613.59 347.04 C 612.95 347.04 611.67 347.05 611.02 347.05 C 609.13 347.01 607.24 346.98 605.37 346.98 C 605.85 344.53 605.78 341.62 607.87 339.88 Z" fill="#000000" opacity="1.00"/><path d=" M 648.49 338.67 C 651.39 337.80 655.45 337.90 656.99 341.01 C 657.65 342.92 657.68 344.99 657.98 346.98 C 656.31 346.98 654.64 346.99 652.99 347.00 C 652.47 347.00 651.43 347.00 650.92 347.00 C 649.03 347.00 647.14 346.98 645.26 346.99 C 645.70 344.10 645.59 340.33 648.49 338.67 Z" fill="#000000" opacity="1.00"/><path d=" M 59.37 347.04 C 60.03 347.03 61.34 347.02 61.99 347.01 C 67.00 346.98 72.01 347.00 77.02 347.00 C 77.01 349.40 77.00 351.80 76.99 354.21 C 71.14 354.29 65.28 354.30 59.42 354.24 C 59.44 351.83 59.45 349.43 59.37 347.04 Z" fill="#ffffff" opacity="1.00"/><path d=" M 77.02 347.00 C 77.55 347.00 78.61 347.00 79.14 347.00 C 79.16 349.41 79.18 351.81 79.19 354.22 C 79.20 358.15 79.17 362.07 79.14 366.00 C 78.61 366.00 77.56 366.00 77.03 366.00 C 77.01 362.07 76.99 358.14 76.99 354.21 C 77.00 351.80 77.01 349.40 77.02 347.00 Z" fill="#b8b69d" opacity="1.00"/><path d=" M 79.14 347.00 C 79.85 347.00 81.27 347.00 81.97 347.00 C 82.74 347.00 84.28 347.00 85.05 347.00 C 87.36 347.00 89.68 346.99 92.01 346.98 C 93.80 346.98 95.59 346.99 97.39 347.00 C 97.40 349.41 97.41 351.82 97.41 354.23 C 91.34 354.29 85.26 354.28 79.19 354.22 C 79.18 351.81 79.16 349.41 79.14 347.00 Z" fill="#ffffff" opacity="1.00"/><path d=" M 97.39 347.00 C 97.93 347.00 99.01 347.00 99.55 347.00 C 99.54 349.40 99.54 351.81 99.54 354.23 C 99.55 358.15 99.59 362.07 99.65 366.00 C 99.07 366.00 97.91 366.00 97.33 366.00 C 97.38 362.08 97.41 358.15 97.41 354.23 C 97.41 351.82 97.40 349.41 97.39 347.00 Z" fill="#b8b69d" opacity="1.00"/><path d=" M 99.55 347.00 C 101.21 346.99 102.86 346.98 104.51 346.98 C 106.81 346.98 109.10 347.00 111.40 347.00 C 113.07 347.01 114.75 347.02 116.43 347.05 C 116.36 349.40 116.31 351.77 116.24 354.13 C 110.68 354.31 105.11 354.33 99.54 354.23 C 99.54 351.81 99.54 349.40 99.55 347.00 Z" fill="#ffffff" opacity="1.00"/><path d=" M 116.43 347.05 C 117.06 347.05 118.34 347.05 118.98 347.05 C 119.03 349.43 119.08 351.81 119.13 354.19 C 125.05 354.34 130.97 354.32 136.89 354.18 C 136.93 351.80 136.98 349.42 137.02 347.05 C 137.66 347.05 138.95 347.05 139.59 347.05 C 139.63 349.41 139.66 351.77 139.71 354.13 C 145.50 354.33 151.30 354.34 157.09 354.16 C 157.14 351.78 157.18 349.40 157.23 347.02 L 158.41 347.02 C 158.34 353.34 158.38 359.65 158.38 365.96 C 138.80 366.01 119.22 365.93 99.65 366.00 C 99.59 362.07 99.55 358.15 99.54 354.23 C 105.11 354.33 110.68 354.31 116.24 354.13 C 116.31 351.77 116.36 349.40 116.43 347.05 Z" fill="#e5e3c6" opacity="1.00"/><path d=" M 118.98 347.05 C 119.87 347.04 121.65 347.02 122.55 347.01 C 125.49 346.99 128.43 346.99 131.37 346.99 C 133.25 347.00 135.13 347.02 137.02 347.05 C 136.98 349.42 136.93 351.80 136.89 354.18 C 130.97 354.32 125.05 354.34 119.13 354.19 C 119.08 351.81 119.03 349.43 118.98 347.05 Z" fill="#ffffff" opacity="1.00"/><path d=" M 139.59 347.05 C 140.57 347.03 142.52 347.01 143.49 347.00 C 148.07 346.99 152.65 346.99 157.23 347.02 C 157.18 349.40 157.14 351.78 157.09 354.16 C 151.30 354.34 145.50 354.33 139.71 354.13 C 139.66 351.77 139.63 349.41 139.59 347.05 Z" fill="#ffffff" opacity="1.00"/><path d=" M 158.65 347.05 L 159.92 347.04 C 159.98 349.41 160.03 351.78 160.08 354.16 C 165.68 354.31 171.28 354.32 176.88 354.22 C 176.87 358.14 176.89 362.07 176.91 366.00 C 170.82 366.01 164.73 366.00 158.64 365.96 C 158.61 359.66 158.61 353.36 158.65 347.05 Z" fill="#e5e3c6" opacity="1.00"/><path d=" M 159.92 347.04 C 163.61 346.99 167.30 347.00 170.99 346.98 C 172.97 346.98 174.94 347.00 176.92 347.00 C 176.90 349.40 176.88 351.81 176.88 354.22 C 171.28 354.32 165.68 354.31 160.08 354.16 C 160.03 351.78 159.98 349.41 159.92 347.04 Z" fill="#ffffff" opacity="1.00"/><path d=" M 176.92 347.00 C 177.44 347.00 178.47 347.00 178.99 347.00 C 178.99 349.40 179.00 351.80 179.00 354.21 C 179.00 358.14 178.99 362.07 178.98 366.00 C 178.46 366.00 177.43 366.00 176.91 366.00 C 176.89 362.07 176.87 358.14 176.88 354.22 C 176.88 351.81 176.90 349.40 176.92 347.00 Z" fill="#b8b69d" opacity="1.00"/><path d=" M 178.99 347.00 C 180.57 346.99 182.15 346.99 183.73 346.99 C 185.91 346.99 188.09 346.99 190.27 346.98 C 192.52 346.98 194.76 347.00 197.01 347.00 C 197.00 349.41 197.00 351.82 197.00 354.23 C 191.00 354.29 185.00 354.29 179.00 354.21 C 179.00 351.80 178.99 349.40 178.99 347.00 Z" fill="#ffffff" opacity="1.00"/><path d=" M 197.01 347.00 C 197.55 347.00 198.62 347.00 199.15 346.99 C 199.16 349.39 199.17 351.80 199.18 354.20 C 199.19 358.13 199.18 362.06 199.15 366.00 C 198.62 366.00 197.55 366.00 197.01 366.00 C 197.01 362.07 197.00 358.15 197.00 354.23 C 197.00 351.82 197.00 349.41 197.01 347.00 Z" fill="#b8b69d" opacity="1.00"/><path d=" M 199.15 346.99 C 200.45 346.98 201.75 346.98 203.06 346.99 C 207.83 347.01 212.61 347.00 217.39 347.00 C 217.40 349.40 217.40 351.80 217.41 354.21 C 211.33 354.31 205.26 354.31 199.18 354.20 C 199.17 351.80 199.16 349.39 199.15 346.99 Z" fill="#ffffff" opacity="1.00"/><path d=" M 217.39 347.00 C 217.93 347.00 219.01 347.00 219.55 347.00 C 219.54 349.40 219.54 351.80 219.54 354.21 C 219.55 358.14 219.59 362.07 219.64 366.00 C 219.07 366.00 217.92 366.00 217.35 366.00 C 217.39 362.07 217.41 358.14 217.41 354.21 C 217.40 351.80 217.40 349.40 217.39 347.00 Z" fill="#b8b69d" opacity="1.00"/><path d=" M 219.55 347.00 C 223.50 347.00 227.45 346.99 231.40 347.00 C 233.07 347.00 234.75 347.02 236.43 347.05 C 236.37 349.41 236.32 351.78 236.26 354.15 C 230.69 354.32 225.11 354.32 219.54 354.21 C 219.54 351.80 219.54 349.40 219.55 347.00 Z" fill="#ffffff" opacity="1.00"/><path d=" M 236.43 347.05 C 237.07 347.05 238.35 347.05 238.99 347.05 C 239.02 349.43 239.05 351.82 239.09 354.21 C 245.02 354.32 250.95 354.31 256.89 354.19 C 256.93 351.81 256.97 349.43 257.02 347.05 C 257.67 347.05 258.98 347.05 259.64 347.05 C 259.65 349.42 259.67 351.80 259.71 354.18 C 265.50 354.33 271.29 354.34 277.08 354.16 C 277.13 351.78 277.18 349.40 277.23 347.02 L 278.45 347.03 C 278.39 353.34 278.41 359.65 278.38 365.96 C 258.80 366.02 239.22 365.93 219.64 366.00 C 219.59 362.07 219.55 358.14 219.54 354.21 C 225.11 354.32 230.69 354.32 236.26 354.15 C 236.32 351.78 236.37 349.41 236.43 347.05 Z" fill="#e5e3c6" opacity="1.00"/><path d=" M 238.99 347.05 C 240.51 347.02 242.03 347.00 243.55 347.00 C 245.86 346.99 248.17 346.99 250.49 346.99 C 252.66 346.99 254.84 347.01 257.02 347.05 C 256.97 349.43 256.93 351.81 256.89 354.19 C 250.95 354.31 245.02 354.32 239.09 354.21 C 239.05 351.82 239.02 349.43 238.99 347.05 Z" fill="#ffffff" opacity="1.00"/><path d=" M 259.64 347.05 L 261.53 347.03 C 264.37 347.00 267.22 346.99 270.07 346.98 C 272.45 346.98 274.84 347.00 277.23 347.02 C 277.18 349.40 277.13 351.78 277.08 354.16 C 271.29 354.34 265.50 354.33 259.71 354.18 C 259.67 351.80 259.65 349.42 259.64 347.05 Z" fill="#ffffff" opacity="1.00"/><path d=" M 278.63 347.05 L 279.88 347.03 C 279.96 349.42 280.03 351.81 280.10 354.20 C 285.69 354.31 291.28 354.31 296.88 354.21 C 296.87 358.14 296.90 362.07 296.93 366.00 C 290.82 366.01 284.71 366.00 278.60 365.96 C 278.58 359.65 278.62 353.35 278.63 347.05 Z" fill="#e5e3c6" opacity="1.00"/><path d=" M 279.88 347.03 C 280.55 347.03 281.89 347.01 282.56 347.00 C 287.35 346.98 292.14 347.00 296.93 347.00 C 296.90 349.40 296.88 351.81 296.88 354.21 C 291.28 354.31 285.69 354.31 280.10 354.20 C 280.03 351.81 279.96 349.42 279.88 347.03 Z" fill="#ffffff" opacity="1.00"/><path d=" M 296.93 347.00 C 297.44 347.00 298.47 347.00 298.98 347.00 C 298.99 349.40 298.99 351.80 299.00 354.21 C 299.00 358.14 298.99 362.07 299.00 366.00 C 298.48 366.00 297.45 366.00 296.93 366.00 C 296.90 362.07 296.87 358.14 296.88 354.21 C 296.88 351.81 296.90 349.40 296.93 347.00 Z" fill="#b8b69d" opacity="1.00"/><path d=" M 298.98 347.00 C 302.74 347.00 306.50 347.00 310.26 346.99 C 311.20 346.99 313.08 347.00 314.02 347.00 C 314.01 349.41 313.99 351.82 313.99 354.23 C 308.99 354.29 303.99 354.28 299.00 354.21 C 298.99 351.80 298.99 349.40 298.98 347.00 Z" fill="#ffffff" opacity="1.00"/><path d=" M 314.02 347.00 C 314.55 347.00 315.61 347.00 316.14 347.00 C 316.16 349.39 316.17 351.79 316.18 354.19 C 316.19 358.12 316.18 362.06 316.15 366.00 C 315.62 366.00 314.56 366.00 314.02 366.00 C 314.00 362.07 313.98 358.15 313.99 354.23 C 313.99 351.82 314.01 349.41 314.02 347.00 Z" fill="#b8b69d" opacity="1.00"/><path d=" M 316.14 347.00 C 318.41 347.00 320.68 346.98 322.96 346.98 C 325.09 346.99 327.22 346.99 329.36 346.98 C 331.03 346.98 332.71 346.99 334.39 347.00 C 334.40 349.40 334.41 351.80 334.41 354.21 C 328.34 354.31 322.26 354.31 316.18 354.19 C 316.17 351.79 316.16 349.39 316.14 347.00 Z" fill="#ffffff" opacity="1.00"/><path d=" M 334.39 347.00 C 334.93 347.00 336.01 347.00 336.56 347.00 C 336.54 349.40 336.53 351.80 336.54 354.21 C 336.54 358.14 336.59 362.07 336.66 366.00 C 336.07 366.00 334.90 366.00 334.31 366.00 C 334.38 362.07 334.41 358.14 334.41 354.21 C 334.41 351.80 334.40 349.40 334.39 347.00 Z" fill="#b8b69d" opacity="1.00"/><path d=" M 336.56 347.00 C 338.55 346.99 340.54 346.97 342.54 346.97 C 346.17 346.99 349.79 347.00 353.42 347.05 C 353.36 349.42 353.31 351.78 353.25 354.15 C 347.68 354.32 342.11 354.33 336.54 354.21 C 336.53 351.80 336.54 349.40 336.56 347.00 Z" fill="#ffffff" opacity="1.00"/><path d=" M 353.42 347.05 C 354.06 347.05 355.34 347.05 355.98 347.06 C 356.02 349.43 356.07 351.81 356.11 354.19 C 362.04 354.33 367.96 354.33 373.89 354.21 C 373.93 351.82 373.97 349.43 374.02 347.05 C 374.66 347.05 375.94 347.05 376.58 347.05 C 376.62 349.42 376.67 351.79 376.73 354.17 C 382.49 354.32 388.26 354.33 394.03 354.19 C 394.11 351.79 394.19 349.40 394.27 347.02 L 395.45 347.03 C 395.39 353.34 395.38 359.65 395.39 365.96 C 375.81 366.02 356.24 365.93 336.66 366.00 C 336.59 362.07 336.54 358.14 336.54 354.21 C 342.11 354.33 347.68 354.32 353.25 354.15 C 353.31 351.78 353.36 349.42 353.42 347.05 Z" fill="#e5e3c6" opacity="1.00"/><path d=" M 355.98 347.06 C 360.69 346.99 365.40 346.98 370.11 347.00 C 371.41 347.00 372.71 347.02 374.02 347.05 C 373.97 349.43 373.93 351.82 373.89 354.21 C 367.96 354.33 362.04 354.33 356.11 354.19 C 356.07 351.81 356.02 349.43 355.98 347.06 Z" fill="#ffffff" opacity="1.00"/><path d=" M 376.58 347.05 C 378.68 347.01 380.78 346.97 382.89 346.97 C 385.08 346.98 387.29 346.99 389.49 346.99 C 391.08 346.99 392.67 347.00 394.27 347.02 C 394.19 349.40 394.11 351.79 394.03 354.19 C 388.26 354.33 382.49 354.32 376.73 354.17 C 376.67 351.79 376.62 349.42 376.58 347.05 Z" fill="#ffffff" opacity="1.00"/><path d=" M 395.63 347.05 L 396.93 347.03 C 396.98 349.41 397.03 351.80 397.08 354.19 C 402.68 354.31 408.28 354.30 413.88 354.20 C 413.87 358.13 413.89 362.06 413.91 366.00 C 407.81 366.01 401.70 366.00 395.60 365.96 C 395.57 359.65 395.61 353.35 395.63 347.05 Z" fill="#e5e3c6" opacity="1.00"/><path d=" M 396.93 347.03 C 398.41 346.99 399.90 346.97 401.38 346.97 C 404.05 346.98 406.72 347.00 409.39 347.00 C 410.89 347.00 412.40 347.00 413.91 347.00 C 413.89 349.40 413.88 351.80 413.88 354.20 C 408.28 354.30 402.68 354.31 397.08 354.19 C 397.03 351.80 396.98 349.41 396.93 347.03 Z" fill="#ffffff" opacity="1.00"/><path d=" M 413.91 347.00 C 414.43 347.00 415.47 347.00 415.99 347.00 C 415.99 349.40 415.99 351.80 416.00 354.20 C 416.00 358.13 415.99 362.06 415.99 366.00 C 415.47 366.00 414.43 366.00 413.91 366.00 C 413.89 362.06 413.87 358.13 413.88 354.20 C 413.88 351.80 413.89 349.40 413.91 347.00 Z" fill="#b8b69d" opacity="1.00"/><path d=" M 415.99 347.00 C 417.95 346.99 419.93 346.98 421.90 346.98 C 425.60 347.00 429.30 347.00 433.01 347.00 C 433.00 349.41 433.00 351.82 433.00 354.23 C 427.33 354.30 421.67 354.29 416.00 354.20 C 415.99 351.80 415.99 349.40 415.99 347.00 Z" fill="#ffffff" opacity="1.00"/><path d=" M 433.01 347.00 C 433.54 347.00 434.61 347.00 435.14 347.00 C 435.16 349.40 435.17 351.80 435.18 354.20 C 435.19 358.13 435.17 362.06 435.14 366.00 C 434.60 366.00 433.53 366.00 433.00 366.00 C 433.00 362.08 433.00 358.15 433.00 354.23 C 433.00 351.82 433.00 349.41 433.01 347.00 Z" fill="#b8b69d" opacity="1.00"/><path d=" M 435.14 347.00 C 439.88 347.00 444.61 347.00 449.35 346.99 C 450.36 346.99 452.38 346.99 453.39 347.00 C 453.40 349.41 453.40 351.82 453.41 354.24 C 447.33 354.31 441.26 354.29 435.18 354.20 C 435.17 351.80 435.16 349.40 435.14 347.00 Z" fill="#ffffff" opacity="1.00"/><path d=" M 453.39 347.00 C 453.93 347.00 455.01 347.00 455.56 347.00 C 455.54 349.40 455.53 351.80 455.54 354.21 C 455.54 358.14 455.58 362.07 455.64 366.00 C 455.07 366.00 453.91 366.00 453.33 366.00 C 453.38 362.08 453.41 358.16 453.41 354.24 C 453.40 351.82 453.40 349.41 453.39 347.00 Z" fill="#b8b69d" opacity="1.00"/><path d=" M 455.56 347.00 C 457.72 346.99 459.89 346.98 462.07 346.98 C 464.15 346.99 466.23 346.98 468.32 346.99 C 469.35 347.00 471.40 347.03 472.43 347.04 C 472.37 349.42 472.32 351.79 472.27 354.17 C 466.69 354.32 461.11 354.32 455.54 354.21 C 455.53 351.80 455.54 349.40 455.56 347.00 Z" fill="#ffffff" opacity="1.00"/><path d=" M 472.43 347.04 C 473.06 347.05 474.34 347.05 474.98 347.05 C 475.02 349.42 475.07 351.79 475.12 354.17 C 481.04 354.33 486.97 354.33 492.89 354.17 C 492.93 351.80 492.97 349.43 493.02 347.06 C 493.65 347.06 494.91 347.05 495.55 347.05 C 495.61 349.42 495.68 351.79 495.76 354.16 C 501.53 354.34 507.30 354.35 513.06 354.16 C 513.11 351.77 513.16 349.39 513.22 347.02 L 514.42 347.03 C 514.38 353.34 514.41 359.65 514.38 365.96 C 494.80 366.02 475.22 365.93 455.64 366.00 C 455.58 362.07 455.54 358.14 455.54 354.21 C 461.11 354.32 466.69 354.32 472.27 354.17 C 472.32 351.79 472.37 349.42 472.43 347.04 Z" fill="#e5e3c6" opacity="1.00"/><path d=" M 474.98 347.05 C 477.19 347.01 479.39 346.97 481.61 346.97 C 485.41 346.99 489.21 347.00 493.02 347.06 C 492.97 349.43 492.93 351.80 492.89 354.17 C 486.97 354.33 481.04 354.33 475.12 354.17 C 475.07 351.79 475.02 349.42 474.98 347.05 Z" fill="#ffffff" opacity="1.00"/><path d=" M 495.55 347.05 C 499.39 346.99 503.24 346.99 507.10 346.97 C 509.13 346.97 511.17 346.99 513.22 347.02 C 513.16 349.39 513.11 351.77 513.06 354.16 C 507.30 354.35 501.53 354.34 495.76 354.16 C 495.68 351.79 495.61 349.42 495.55 347.05 Z" fill="#ffffff" opacity="1.00"/><path d=" M 514.60 347.05 L 515.92 347.02 C 515.97 349.40 516.02 351.78 516.07 354.17 C 521.67 354.33 527.27 354.31 532.88 354.20 C 532.87 358.13 532.89 362.06 532.91 366.00 C 526.80 366.01 520.70 366.00 514.59 365.96 C 514.59 359.65 514.60 353.35 514.60 347.05 Z" fill="#e5e3c6" opacity="1.00"/><path d=" M 515.92 347.02 C 517.23 346.99 518.55 346.98 519.88 346.98 C 522.07 346.98 524.26 346.99 526.46 346.99 C 528.61 346.99 530.76 347.00 532.91 347.00 C 532.89 349.39 532.88 351.79 532.88 354.20 C 527.27 354.31 521.67 354.33 516.07 354.17 C 516.02 351.78 515.97 349.40 515.92 347.02 Z" fill="#ffffff" opacity="1.00"/><path d=" M 532.91 347.00 C 533.43 346.99 534.47 346.99 534.98 346.99 C 534.99 349.40 534.99 351.81 535.00 354.22 C 535.00 358.15 534.99 362.07 534.99 366.00 C 534.47 366.00 533.43 366.00 532.91 366.00 C 532.89 362.06 532.87 358.13 532.88 354.20 C 532.88 351.79 532.89 349.39 532.91 347.00 Z" fill="#b8b69d" opacity="1.00"/><path d=" M 534.98 346.99 C 535.84 346.98 537.55 346.98 538.40 346.98 C 541.07 346.98 543.74 347.00 546.42 347.00 C 547.94 347.00 549.48 347.00 551.02 347.00 C 551.00 349.41 550.99 351.81 551.00 354.22 C 545.66 354.29 540.33 354.29 535.00 354.22 C 534.99 351.81 534.99 349.40 534.98 346.99 Z" fill="#ffffff" opacity="1.00"/><path d=" M 551.02 347.00 C 551.55 347.00 552.61 347.00 553.14 347.00 C 553.15 349.40 553.17 351.81 553.19 354.21 C 553.20 358.14 553.17 362.07 553.13 366.00 C 552.60 366.00 551.54 366.00 551.01 366.00 C 550.99 362.07 550.99 358.15 551.00 354.22 C 550.99 351.81 551.00 349.41 551.02 347.00 Z" fill="#b8b69d" opacity="1.00"/><path d=" M 553.14 347.00 C 555.06 346.99 556.99 346.98 558.92 346.98 C 563.08 347.00 567.23 347.00 571.39 347.00 C 571.40 349.40 571.40 351.81 571.41 354.22 C 565.33 354.29 559.26 354.28 553.19 354.21 C 553.17 351.81 553.15 349.40 553.14 347.00 Z" fill="#ffffff" opacity="1.00"/><path d=" M 571.39 347.00 C 571.93 347.00 573.01 347.00 573.55 347.00 C 573.54 349.41 573.53 351.82 573.54 354.24 C 573.55 358.16 573.59 362.08 573.65 366.00 C 573.07 366.00 571.90 366.00 571.32 366.00 C 571.38 362.07 571.41 358.15 571.41 354.22 C 571.40 351.81 571.40 349.40 571.39 347.00 Z" fill="#b8b69d" opacity="1.00"/><path d=" M 573.55 347.00 C 577.81 347.00 582.07 346.99 586.34 347.00 C 587.37 347.01 589.43 347.04 590.46 347.05 C 590.38 349.42 590.30 351.80 590.22 354.17 C 584.66 354.29 579.10 354.31 573.54 354.24 C 573.53 351.82 573.54 349.41 573.55 347.00 Z" fill="#ffffff" opacity="1.00"/><path d=" M 590.46 347.05 C 591.09 347.05 592.35 347.05 592.98 347.05 C 593.02 349.42 593.07 351.80 593.12 354.18 C 599.03 354.32 604.94 354.34 610.85 354.20 C 610.91 351.81 610.96 349.43 611.02 347.05 C 611.67 347.05 612.95 347.04 613.59 347.04 C 613.62 349.42 613.65 351.80 613.70 354.19 C 619.48 354.33 625.26 354.33 631.05 354.18 C 631.11 351.79 631.17 349.40 631.25 347.02 L 632.41 347.03 C 632.33 353.34 632.37 359.65 632.36 365.96 C 612.79 366.01 593.22 365.93 573.65 366.00 C 573.59 362.08 573.55 358.16 573.54 354.24 C 579.10 354.31 584.66 354.29 590.22 354.17 C 590.30 351.80 590.38 349.42 590.46 347.05 Z" fill="#e5e3c6" opacity="1.00"/><path d=" M 592.98 347.05 C 595.00 347.01 597.03 346.99 599.06 346.98 C 601.16 346.98 603.26 346.98 605.37 346.98 C 607.24 346.98 609.13 347.01 611.02 347.05 C 610.96 349.43 610.91 351.81 610.85 354.20 C 604.94 354.34 599.03 354.32 593.12 354.18 C 593.07 351.80 593.02 349.42 592.98 347.05 Z" fill="#ffffff" opacity="1.00"/><path d=" M 613.59 347.04 C 615.25 347.01 616.91 346.99 618.58 346.98 C 622.80 346.99 627.02 346.99 631.25 347.02 C 631.17 349.40 631.11 351.79 631.05 354.18 C 625.26 354.33 619.48 354.33 613.70 354.19 C 613.65 351.80 613.62 349.42 613.59 347.04 Z" fill="#ffffff" opacity="1.00"/><path d=" M 632.64 347.06 L 633.92 347.04 C 633.97 349.42 634.02 351.80 634.08 354.18 C 639.68 354.32 645.28 354.32 650.88 354.18 C 650.87 358.12 650.89 362.05 650.91 365.99 C 644.81 366.01 638.72 366.00 632.63 365.96 C 632.60 359.66 632.60 353.36 632.64 347.06 Z" fill="#e5e3c6" opacity="1.00"/><path d=" M 633.92 347.04 C 634.43 347.03 635.47 347.02 635.98 347.01 C 636.74 347.01 638.25 347.00 639.01 347.00 C 641.08 346.99 643.17 346.99 645.26 346.99 C 647.14 346.98 649.03 347.00 650.92 347.00 C 650.89 349.39 650.88 351.79 650.88 354.18 C 645.28 354.32 639.68 354.32 634.08 354.18 C 634.02 351.80 633.97 349.42 633.92 347.04 Z" fill="#ffffff" opacity="1.00"/><path d=" M 650.92 347.00 C 651.43 347.00 652.47 347.00 652.99 347.00 C 652.99 349.42 652.99 351.84 653.00 354.26 C 653.00 358.17 652.99 362.08 652.98 366.00 C 652.46 366.00 651.42 365.99 650.91 365.99 C 650.89 362.05 650.87 358.12 650.88 354.18 C 650.88 351.79 650.89 349.39 650.92 347.00 Z" fill="#b8b69d" opacity="1.00"/><path d=" M 652.99 347.00 C 654.64 346.99 656.31 346.98 657.98 346.98 C 659.45 346.98 660.92 346.99 662.40 347.00 C 662.47 349.41 662.50 351.82 662.52 354.24 C 659.34 354.25 656.17 354.26 653.00 354.26 C 652.99 351.84 652.99 349.42 652.99 347.00 Z" fill="#ffffff" opacity="1.00"/><path d=" M 59.42 354.24 C 65.28 354.30 71.14 354.29 76.99 354.21 C 76.99 358.14 77.01 362.07 77.03 366.00 C 72.53 365.99 68.03 365.98 63.53 366.06 C 60.49 362.94 59.19 358.52 59.42 354.24 Z" fill="#e5e3c6" opacity="1.00"/><path d=" M 79.19 354.22 C 85.26 354.28 91.34 354.29 97.41 354.23 C 97.41 358.15 97.38 362.08 97.33 366.00 C 91.27 366.00 85.20 366.00 79.14 366.00 C 79.17 362.07 79.20 358.15 79.19 354.22 Z" fill="#e5e3c6" opacity="1.00"/><path d=" M 179.00 354.21 C 185.00 354.29 191.00 354.29 197.00 354.23 C 197.00 358.15 197.01 362.07 197.01 366.00 C 191.00 366.00 184.99 366.00 178.98 366.00 C 178.99 362.07 179.00 358.14 179.00 354.21 Z" fill="#e5e3c6" opacity="1.00"/><path d=" M 199.18 354.20 C 205.26 354.31 211.33 354.31 217.41 354.21 C 217.41 358.14 217.39 362.07 217.35 366.00 C 211.28 366.00 205.22 366.00 199.15 366.00 C 199.18 362.06 199.19 358.13 199.18 354.20 Z" fill="#e5e3c6" opacity="1.00"/><path d=" M 299.00 354.21 C 303.99 354.28 308.99 354.29 313.99 354.23 C 313.98 358.15 314.00 362.07 314.02 366.00 C 309.01 366.00 304.00 366.00 299.00 366.00 C 298.99 362.07 299.00 358.14 299.00 354.21 Z" fill="#e5e3c6" opacity="1.00"/><path d=" M 316.18 354.19 C 322.26 354.31 328.34 354.31 334.41 354.21 C 334.41 358.14 334.38 362.07 334.31 366.00 C 328.26 366.00 322.20 366.00 316.15 366.00 C 316.18 362.06 316.19 358.12 316.18 354.19 Z" fill="#e5e3c6" opacity="1.00"/><path d=" M 416.00 354.20 C 421.67 354.29 427.33 354.30 433.00 354.23 C 433.00 358.15 433.00 362.08 433.00 366.00 C 427.33 366.00 421.66 366.00 415.99 366.00 C 415.99 362.06 416.00 358.13 416.00 354.20 Z" fill="#e5e3c6" opacity="1.00"/><path d=" M 435.18 354.20 C 441.26 354.29 447.33 354.31 453.41 354.24 C 453.41 358.16 453.38 362.08 453.33 366.00 C 447.26 366.00 441.20 366.00 435.14 366.00 C 435.17 362.06 435.19 358.13 435.18 354.20 Z" fill="#e5e3c6" opacity="1.00"/><path d=" M 535.00 354.22 C 540.33 354.29 545.66 354.29 551.00 354.22 C 550.99 358.15 550.99 362.07 551.01 366.00 C 545.67 366.00 540.33 366.00 534.99 366.00 C 534.99 362.07 535.00 358.15 535.00 354.22 Z" fill="#e5e3c6" opacity="1.00"/><path d=" M 553.19 354.21 C 559.26 354.28 565.33 354.29 571.41 354.22 C 571.41 358.15 571.38 362.07 571.32 366.00 C 565.25 366.00 559.19 366.00 553.13 366.00 C 553.17 362.07 553.20 358.14 553.19 354.21 Z" fill="#e5e3c6" opacity="1.00"/><path d=" M 653.00 354.26 C 656.17 354.26 659.34 354.25 662.52 354.24 C 662.75 358.53 661.42 362.93 658.41 366.06 C 656.59 366.02 654.78 366.00 652.98 366.00 C 652.99 362.08 653.00 358.17 653.00 354.26 Z" fill="#e5e3c6" opacity="1.00"/><path d=" M 63.53 366.06 C 68.03 365.98 72.53 365.99 77.03 366.00 C 77.56 366.00 78.61 366.00 79.14 366.00 C 85.20 366.00 91.27 366.00 97.33 366.00 C 97.91 366.00 99.07 366.00 99.65 366.00 C 119.22 365.93 138.80 366.01 158.38 365.96 L 158.64 365.96 C 164.73 366.00 170.82 366.01 176.91 366.00 C 177.43 366.00 178.46 366.00 178.98 366.00 C 184.99 366.00 191.00 366.00 197.01 366.00 C 197.55 366.00 198.62 366.00 199.15 366.00 C 205.22 366.00 211.28 366.00 217.35 366.00 C 217.92 366.00 219.07 366.00 219.64 366.00 C 239.22 365.93 258.80 366.02 278.38 365.96 L 278.60 365.96 C 284.71 366.00 290.82 366.01 296.93 366.00 C 297.45 366.00 298.48 366.00 299.00 366.00 C 304.00 366.00 309.01 366.00 314.02 366.00 C 314.56 366.00 315.62 366.00 316.15 366.00 C 322.20 366.00 328.26 366.00 334.31 366.00 C 334.90 366.00 336.07 366.00 336.66 366.00 C 356.24 365.93 375.81 366.02 395.39 365.96 L 395.60 365.96 C 401.70 366.00 407.81 366.01 413.91 366.00 C 414.43 366.00 415.47 366.00 415.99 366.00 C 421.66 366.00 427.33 366.00 433.00 366.00 C 433.53 366.00 434.60 366.00 435.14 366.00 C 441.20 366.00 447.26 366.00 453.33 366.00 C 453.91 366.00 455.07 366.00 455.64 366.00 C 475.22 365.93 494.80 366.02 514.38 365.96 L 514.59 365.96 C 520.70 366.00 526.80 366.01 532.91 366.00 C 533.43 366.00 534.47 366.00 534.99 366.00 C 540.33 366.00 545.67 366.00 551.01 366.00 C 551.54 366.00 552.60 366.00 553.13 366.00 C 559.19 366.00 565.25 366.00 571.32 366.00 C 571.90 366.00 573.07 366.00 573.65 366.00 C 593.22 365.93 612.79 366.01 632.36 365.96 L 632.63 365.96 C 638.72 366.00 644.81 366.01 650.91 365.99 C 651.42 365.99 652.46 366.00 652.98 366.00 C 654.78 366.00 656.59 366.02 658.41 366.06 C 656.12 368.42 653.52 371.00 650.04 371.21 C 645.37 371.60 640.68 371.28 636.01 371.34 C 451.67 371.36 267.32 371.34 82.98 371.35 C 79.01 371.30 75.02 371.64 71.08 371.09 C 67.95 370.58 65.64 368.22 63.53 366.06 Z" fill="#fa2b2b" opacity="1.00"/><path d=" M 84.83 439.06 C 116.90 438.79 148.97 439.09 181.04 438.95 C 189.10 439.03 197.16 438.88 205.21 439.14 C 204.70 448.58 196.62 457.11 186.96 456.99 C 158.97 457.08 130.97 457.04 102.98 457.01 C 93.31 457.12 85.24 448.51 84.83 439.06 Z" fill="#3d2311" opacity="1.00"/><path d=" M 517.88 439.12 C 542.58 438.79 567.28 439.05 591.98 438.97 C 607.35 439.10 622.72 438.77 638.09 439.10 C 637.91 448.61 629.50 457.11 619.92 456.99 C 591.94 456.99 563.95 456.99 535.98 456.99 C 526.38 457.08 518.21 448.57 517.88 439.12 Z" fill="#3d2311" opacity="1.00"/><path d=" M 125.15 460.04 C 138.74 460.02 152.33 459.77 165.92 460.09 C 166.17 506.06 165.90 552.05 166.06 598.02 C 166.01 603.36 166.62 609.08 163.98 613.96 C 161.01 620.34 153.91 624.21 146.99 624.09 C 142.19 624.30 137.12 623.76 133.10 620.90 C 127.52 617.34 124.58 610.48 124.93 603.98 C 125.17 556.00 124.70 508.01 125.15 460.04 Z" fill="#3d2311" opacity="1.00"/><path d=" M 557.13 460.14 C 570.72 459.87 584.31 459.95 597.90 460.11 C 598.12 508.42 597.98 556.73 598.04 605.04 C 598.50 613.89 591.69 622.29 582.96 623.71 C 577.39 624.38 571.31 624.54 566.31 621.62 C 560.36 618.46 556.76 611.67 556.99 605.00 C 557.07 556.72 556.78 508.42 557.13 460.14 Z" fill="#3d2311" opacity="1.00"/></svg>